<mxfile host="app.diagrams.net" modified="2021-03-09T04:54:14.478Z" agent="5.0 (Windows NT 10.0; Win64; x64) AppleWebKit/537.36 (KHTML, like Gecko) Chrome/87.0.4280.141 Safari/537.36" etag="0YhiwpjdDcQbQg8rtsF7" version="14.4.5" type="github">
  <diagram id="lZHplhtfMHtd2nOFl9z7" name="Page-1">
    <mxGraphModel dx="866" dy="522" grid="1" gridSize="10" guides="1" tooltips="1" connect="1" arrows="1" fold="1" page="1" pageScale="1" pageWidth="827" pageHeight="1169" math="0" shadow="0">
      <root>
        <mxCell id="0" />
        <mxCell id="1" parent="0" />
        <mxCell id="XgQd-eCaBQb9AN2BfQIH-3" style="edgeStyle=orthogonalEdgeStyle;rounded=0;orthogonalLoop=1;jettySize=auto;html=1;entryX=0;entryY=0.5;entryDx=0;entryDy=0;" edge="1" parent="1" source="XgQd-eCaBQb9AN2BfQIH-1" target="XgQd-eCaBQb9AN2BfQIH-2">
          <mxGeometry relative="1" as="geometry" />
        </mxCell>
        <mxCell id="XgQd-eCaBQb9AN2BfQIH-1" value="" style="rounded=1;whiteSpace=wrap;html=1;arcSize=18;" vertex="1" parent="1">
          <mxGeometry x="150" y="140" width="120" height="60" as="geometry" />
        </mxCell>
        <mxCell id="XgQd-eCaBQb9AN2BfQIH-2" value="" style="ellipse;whiteSpace=wrap;html=1;aspect=fixed;" vertex="1" parent="1">
          <mxGeometry x="510" y="30" width="80" height="80" as="geometry" />
        </mxCell>
        <mxCell id="XgQd-eCaBQb9AN2BfQIH-5" style="edgeStyle=orthogonalEdgeStyle;rounded=0;orthogonalLoop=1;jettySize=auto;html=1;" edge="1" parent="1" source="XgQd-eCaBQb9AN2BfQIH-4" target="XgQd-eCaBQb9AN2BfQIH-1">
          <mxGeometry relative="1" as="geometry" />
        </mxCell>
        <mxCell id="XgQd-eCaBQb9AN2BfQIH-4" value="Actor" style="shape=umlActor;verticalLabelPosition=bottom;verticalAlign=top;html=1;outlineConnect=0;" vertex="1" parent="1">
          <mxGeometry x="40" y="140" width="30" height="60" as="geometry" />
        </mxCell>
        <mxCell id="XgQd-eCaBQb9AN2BfQIH-6" value="" style="shape=table;html=1;whiteSpace=wrap;startSize=0;container=1;collapsible=0;childLayout=tableLayout;" vertex="1" parent="1">
          <mxGeometry x="150" y="220" width="240" height="120" as="geometry" />
        </mxCell>
        <mxCell id="XgQd-eCaBQb9AN2BfQIH-7" value="" style="shape=partialRectangle;html=1;whiteSpace=wrap;collapsible=0;dropTarget=0;pointerEvents=0;fillColor=none;top=0;left=0;bottom=0;right=0;points=[[0,0.5],[1,0.5]];portConstraint=eastwest;" vertex="1" parent="XgQd-eCaBQb9AN2BfQIH-6">
          <mxGeometry width="240" height="40" as="geometry" />
        </mxCell>
        <mxCell id="XgQd-eCaBQb9AN2BfQIH-8" value="" style="shape=partialRectangle;html=1;whiteSpace=wrap;connectable=0;overflow=hidden;fillColor=none;top=0;left=0;bottom=0;right=0;" vertex="1" parent="XgQd-eCaBQb9AN2BfQIH-7">
          <mxGeometry width="60" height="40" as="geometry" />
        </mxCell>
        <mxCell id="XgQd-eCaBQb9AN2BfQIH-9" value="" style="shape=partialRectangle;html=1;whiteSpace=wrap;connectable=0;overflow=hidden;fillColor=none;top=0;left=0;bottom=0;right=0;" vertex="1" parent="XgQd-eCaBQb9AN2BfQIH-7">
          <mxGeometry x="60" width="60" height="40" as="geometry" />
        </mxCell>
        <mxCell id="XgQd-eCaBQb9AN2BfQIH-10" value="" style="shape=partialRectangle;html=1;whiteSpace=wrap;connectable=0;overflow=hidden;fillColor=none;top=0;left=0;bottom=0;right=0;" vertex="1" parent="XgQd-eCaBQb9AN2BfQIH-7">
          <mxGeometry x="120" width="60" height="40" as="geometry" />
        </mxCell>
        <mxCell id="XgQd-eCaBQb9AN2BfQIH-11" value="" style="shape=partialRectangle;html=1;whiteSpace=wrap;connectable=0;overflow=hidden;fillColor=none;top=0;left=0;bottom=0;right=0;" vertex="1" parent="XgQd-eCaBQb9AN2BfQIH-7">
          <mxGeometry x="180" width="60" height="40" as="geometry" />
        </mxCell>
        <mxCell id="XgQd-eCaBQb9AN2BfQIH-12" value="" style="shape=partialRectangle;html=1;whiteSpace=wrap;collapsible=0;dropTarget=0;pointerEvents=0;fillColor=none;top=0;left=0;bottom=0;right=0;points=[[0,0.5],[1,0.5]];portConstraint=eastwest;" vertex="1" parent="XgQd-eCaBQb9AN2BfQIH-6">
          <mxGeometry y="40" width="240" height="40" as="geometry" />
        </mxCell>
        <mxCell id="XgQd-eCaBQb9AN2BfQIH-13" value="" style="shape=partialRectangle;html=1;whiteSpace=wrap;connectable=0;overflow=hidden;fillColor=none;top=0;left=0;bottom=0;right=0;" vertex="1" parent="XgQd-eCaBQb9AN2BfQIH-12">
          <mxGeometry width="60" height="40" as="geometry" />
        </mxCell>
        <mxCell id="XgQd-eCaBQb9AN2BfQIH-14" value="" style="shape=partialRectangle;html=1;whiteSpace=wrap;connectable=0;overflow=hidden;fillColor=none;top=0;left=0;bottom=0;right=0;" vertex="1" parent="XgQd-eCaBQb9AN2BfQIH-12">
          <mxGeometry x="60" width="60" height="40" as="geometry" />
        </mxCell>
        <mxCell id="XgQd-eCaBQb9AN2BfQIH-15" value="" style="shape=partialRectangle;html=1;whiteSpace=wrap;connectable=0;overflow=hidden;fillColor=none;top=0;left=0;bottom=0;right=0;" vertex="1" parent="XgQd-eCaBQb9AN2BfQIH-12">
          <mxGeometry x="120" width="60" height="40" as="geometry" />
        </mxCell>
        <mxCell id="XgQd-eCaBQb9AN2BfQIH-16" value="" style="shape=partialRectangle;html=1;whiteSpace=wrap;connectable=0;overflow=hidden;fillColor=none;top=0;left=0;bottom=0;right=0;" vertex="1" parent="XgQd-eCaBQb9AN2BfQIH-12">
          <mxGeometry x="180" width="60" height="40" as="geometry" />
        </mxCell>
        <mxCell id="XgQd-eCaBQb9AN2BfQIH-17" value="" style="shape=partialRectangle;html=1;whiteSpace=wrap;collapsible=0;dropTarget=0;pointerEvents=0;fillColor=none;top=0;left=0;bottom=0;right=0;points=[[0,0.5],[1,0.5]];portConstraint=eastwest;" vertex="1" parent="XgQd-eCaBQb9AN2BfQIH-6">
          <mxGeometry y="80" width="240" height="40" as="geometry" />
        </mxCell>
        <mxCell id="XgQd-eCaBQb9AN2BfQIH-18" value="" style="shape=partialRectangle;html=1;whiteSpace=wrap;connectable=0;overflow=hidden;fillColor=none;top=0;left=0;bottom=0;right=0;" vertex="1" parent="XgQd-eCaBQb9AN2BfQIH-17">
          <mxGeometry width="60" height="40" as="geometry" />
        </mxCell>
        <mxCell id="XgQd-eCaBQb9AN2BfQIH-19" value="" style="shape=partialRectangle;html=1;whiteSpace=wrap;connectable=0;overflow=hidden;fillColor=none;top=0;left=0;bottom=0;right=0;" vertex="1" parent="XgQd-eCaBQb9AN2BfQIH-17">
          <mxGeometry x="60" width="60" height="40" as="geometry" />
        </mxCell>
        <mxCell id="XgQd-eCaBQb9AN2BfQIH-20" value="" style="shape=partialRectangle;html=1;whiteSpace=wrap;connectable=0;overflow=hidden;fillColor=none;top=0;left=0;bottom=0;right=0;" vertex="1" parent="XgQd-eCaBQb9AN2BfQIH-17">
          <mxGeometry x="120" width="60" height="40" as="geometry" />
        </mxCell>
        <mxCell id="XgQd-eCaBQb9AN2BfQIH-21" value="" style="shape=partialRectangle;html=1;whiteSpace=wrap;connectable=0;overflow=hidden;fillColor=none;top=0;left=0;bottom=0;right=0;" vertex="1" parent="XgQd-eCaBQb9AN2BfQIH-17">
          <mxGeometry x="180" width="60" height="40" as="geometry" />
        </mxCell>
      </root>
    </mxGraphModel>
  </diagram>
</mxfile>
